<svg id="Calque_1" data-name="Calque 1" xmlns="http://www.w3.org/2000/svg" viewBox="0 0 144.89 44"><defs><style>.cls-1{fill:#f0ff00;}.cls-2{fill:none;stroke:#f0ff00;stroke-miterlimit:10;stroke-width:4px;}.cls-3{font-size:36px;fill:#fff;font-family:Lato-Bold, Lato;font-weight:700;}.cls-4{letter-spacing:-0.08em;}.cls-5{letter-spacing:-0.05em;}</style></defs><path class="cls-1" d="M22.94,22.33c1.58.85,3.17-1.82,3.23-3.76a8.06,8.06,0,0,0-2.26-5,1.87,1.87,0,0,0-2.68.06,2.72,2.72,0,0,0-.71,1.25,6.2,6.2,0,0,0-.27,1.9,8.08,8.08,0,0,0,.27,2A5.56,5.56,0,0,0,22.94,22.33Z" transform="translate(-4.5 -3)"/><path class="cls-1" d="M29.53,22.81c1.33.38,2.64-1.26,3.43-2.93a8.65,8.65,0,0,0,.72-2.16A4.94,4.94,0,0,0,33,14.24c-.57-.72-1.48-1-2.82-.22a5.86,5.86,0,0,0-2.5,3.52C27.33,19.66,27.58,22.27,29.53,22.81Z" transform="translate(-4.5 -3)"/><path class="cls-1" d="M35,22.09a8.85,8.85,0,0,0-2,2.06,4.17,4.17,0,0,0-.75,1.94A3.86,3.86,0,0,0,33,29.18a2.08,2.08,0,0,0,1.51.55c1.77,0,4-2.55,4-4.91S37.22,20.63,35,22.09Z" transform="translate(-4.5 -3)"/><path class="cls-1" d="M20.52,27a4.15,4.15,0,0,0,.16-2.52,5.62,5.62,0,0,0-.16-.71,7.19,7.19,0,0,0-2.34-3.29c-3.54-1.58-4,2.61-3.3,4.43s2.14,3.45,3.85,3.15A2.28,2.28,0,0,0,20.52,27Z" transform="translate(-4.5 -3)"/><path class="cls-1" d="M33,31.63A20.8,20.8,0,0,0,28.8,26c-1.1-1-3.06-1.34-4-.24a27,27,0,0,0-4.31,4.05,10.83,10.83,0,0,0-1.73,2.74c-1.21,2.9.19,4.3,1.73,4.41a2.85,2.85,0,0,0,.77-.05c1.77-.36,4.52-2.12,7.45-1A4.45,4.45,0,0,0,33,35.86a2.34,2.34,0,0,0,.6-2.74A11,11,0,0,0,33,31.63Z" transform="translate(-4.5 -3)"/><circle class="cls-2" cx="22" cy="22" r="20"/><text class="cls-3" transform="translate(44.47 34.34)"><tspan class="cls-4">P</tspan><tspan class="cls-5" x="19.71" y="0">A</tspan><tspan x="43.43" y="0">WS</tspan></text></svg>